G04 #@! TF.FileFunction,Copper,L2,Bot,Signal*
%FSLAX46Y46*%
G04 Gerber Fmt 4.6, Leading zero omitted, Abs format (unit mm)*
G04 Created by KiCad (PCBNEW 4.0.7) date 05/12/18 22:47:13*
%MOMM*%
%LPD*%
G01*
G04 APERTURE LIST*
%ADD10C,0.100000*%
%ADD11C,0.300000*%
%ADD12R,1.400000X1.400000*%
%ADD13C,1.400000*%
%ADD14R,1.800000X1.800000*%
%ADD15C,1.800000*%
%ADD16O,2.800000X1.400000*%
%ADD17R,1.800000X1.400000*%
%ADD18O,1.800000X1.400000*%
%ADD19R,2.000000X1.400000*%
%ADD20O,2.000000X1.400000*%
%ADD21R,3.200000X3.200000*%
%ADD22C,5.700000*%
%ADD23C,0.800000*%
%ADD24C,0.500000*%
%ADD25C,0.200000*%
G04 APERTURE END LIST*
D10*
D11*
X64623000Y2012143D02*
X64408714Y1940714D01*
X64337286Y1869286D01*
X64265857Y1726429D01*
X64265857Y1512143D01*
X64337286Y1369286D01*
X64408714Y1297857D01*
X64551572Y1226429D01*
X65123000Y1226429D01*
X65123000Y2726429D01*
X64623000Y2726429D01*
X64480143Y2655000D01*
X64408714Y2583571D01*
X64337286Y2440714D01*
X64337286Y2297857D01*
X64408714Y2155000D01*
X64480143Y2083571D01*
X64623000Y2012143D01*
X65123000Y2012143D01*
X63337286Y2726429D02*
X63051572Y2726429D01*
X62908714Y2655000D01*
X62765857Y2512143D01*
X62694429Y2226429D01*
X62694429Y1726429D01*
X62765857Y1440714D01*
X62908714Y1297857D01*
X63051572Y1226429D01*
X63337286Y1226429D01*
X63480143Y1297857D01*
X63623000Y1440714D01*
X63694429Y1726429D01*
X63694429Y2226429D01*
X63623000Y2512143D01*
X63480143Y2655000D01*
X63337286Y2726429D01*
X62265857Y2726429D02*
X61408714Y2726429D01*
X61837285Y1226429D02*
X61837285Y2726429D01*
D12*
X36830000Y31750000D03*
D13*
X36830000Y29250000D03*
D12*
X36830000Y46990000D03*
D13*
X36830000Y44490000D03*
X16510000Y74930000D03*
X21590000Y74930000D03*
X16510000Y67310000D03*
X21590000Y67310000D03*
X29210000Y74930000D03*
X34290000Y74930000D03*
X29210000Y67310000D03*
X34290000Y67310000D03*
X41910000Y74930000D03*
X46990000Y74930000D03*
X41910000Y67310000D03*
X46990000Y67310000D03*
X54610000Y74930000D03*
X59690000Y74930000D03*
X54610000Y67310000D03*
X59690000Y67310000D03*
D14*
X22860000Y59690000D03*
D15*
X22860000Y62230000D03*
D14*
X19050000Y82550000D03*
D15*
X19050000Y80010000D03*
D14*
X31750000Y82550000D03*
D15*
X31750000Y80010000D03*
D14*
X44450000Y82550000D03*
D15*
X44450000Y80010000D03*
D14*
X57150000Y82550000D03*
D15*
X57150000Y80010000D03*
D14*
X17780000Y59690000D03*
D15*
X17780000Y62230000D03*
D14*
X27940000Y59690000D03*
D15*
X27940000Y62230000D03*
D14*
X33020000Y59690000D03*
D15*
X33020000Y62230000D03*
D14*
X38100000Y59690000D03*
D15*
X38100000Y62230000D03*
D14*
X43180000Y59690000D03*
D15*
X43180000Y62230000D03*
D14*
X48260000Y59690000D03*
D15*
X48260000Y62230000D03*
D14*
X53340000Y59690000D03*
D15*
X53340000Y62230000D03*
D14*
X58420000Y59690000D03*
D15*
X58420000Y62230000D03*
D12*
X25400000Y54610000D03*
D13*
X27940000Y54610000D03*
X30480000Y54610000D03*
X33020000Y54610000D03*
X35560000Y54610000D03*
X38100000Y54610000D03*
X40640000Y54610000D03*
X43180000Y54610000D03*
X45720000Y54610000D03*
X48260000Y54610000D03*
D16*
X40640000Y34290000D03*
X40640000Y31750000D03*
X40640000Y29210000D03*
X40640000Y26670000D03*
X48260000Y26670000D03*
X48260000Y29210000D03*
X48260000Y31750000D03*
X48260000Y34290000D03*
X40640000Y49530000D03*
X40640000Y46990000D03*
X40640000Y44450000D03*
X40640000Y41910000D03*
X48260000Y41910000D03*
X48260000Y44450000D03*
X48260000Y46990000D03*
X48260000Y49530000D03*
D12*
X49530000Y69850000D03*
D13*
X49530000Y72350000D03*
D12*
X36830000Y69850000D03*
D13*
X36830000Y72350000D03*
D12*
X24130000Y69850000D03*
D13*
X24130000Y72350000D03*
D12*
X11430000Y69850000D03*
D13*
X11430000Y72350000D03*
X34290000Y34290000D03*
X34290000Y26670000D03*
X31750000Y34290000D03*
X31750000Y26670000D03*
X28956000Y34290000D03*
X28956000Y26670000D03*
X59690000Y82550000D03*
X67310000Y82550000D03*
X46990000Y82550000D03*
X54610000Y82550000D03*
X34290000Y82550000D03*
X41910000Y82550000D03*
X21590000Y82550000D03*
X29210000Y82550000D03*
X34290000Y49530000D03*
X34290000Y41910000D03*
X31750000Y49530000D03*
X31750000Y41910000D03*
X29210000Y49530000D03*
X29210000Y41910000D03*
X52070000Y67310000D03*
X52070000Y74930000D03*
X39370000Y67310000D03*
X39370000Y74930000D03*
X26670000Y67310000D03*
X26670000Y74930000D03*
X13970000Y67310000D03*
X13970000Y74930000D03*
X67310000Y80010000D03*
X59690000Y80010000D03*
X54610000Y80010000D03*
X46990000Y80010000D03*
X41910000Y80010000D03*
X34290000Y80010000D03*
X29210000Y80010000D03*
X21590000Y80010000D03*
D15*
X21590000Y41910000D03*
X21590000Y39370000D03*
X21590000Y49530000D03*
X55880000Y49530000D03*
X55880000Y52070000D03*
X55880000Y41910000D03*
X21590000Y26670000D03*
X21590000Y24130000D03*
X21590000Y34290000D03*
X55880000Y34290000D03*
X55880000Y36830000D03*
X55880000Y26670000D03*
D17*
X67310000Y72390000D03*
D18*
X69850000Y72390000D03*
X67310000Y69850000D03*
X69850000Y69850000D03*
X67310000Y67310000D03*
X69850000Y67310000D03*
X67310000Y64770000D03*
X69850000Y64770000D03*
X67310000Y62230000D03*
X69850000Y62230000D03*
X67310000Y59690000D03*
X69850000Y59690000D03*
X67310000Y57150000D03*
X69850000Y57150000D03*
X67310000Y54610000D03*
X69850000Y54610000D03*
X67310000Y52070000D03*
X69850000Y52070000D03*
X67310000Y49530000D03*
X69850000Y49530000D03*
X67310000Y46990000D03*
X69850000Y46990000D03*
X67310000Y44450000D03*
X69850000Y44450000D03*
X67310000Y41910000D03*
X69850000Y41910000D03*
X67310000Y39370000D03*
X69850000Y39370000D03*
X67310000Y36830000D03*
X69850000Y36830000D03*
X67310000Y34290000D03*
X69850000Y34290000D03*
X67310000Y31750000D03*
X69850000Y31750000D03*
X67310000Y29210000D03*
X69850000Y29210000D03*
X67310000Y26670000D03*
X69850000Y26670000D03*
X67310000Y24130000D03*
X69850000Y24130000D03*
D19*
X8890000Y72390000D03*
D20*
X8890000Y69850000D03*
X8890000Y67310000D03*
X8890000Y64770000D03*
X8890000Y62230000D03*
X8890000Y59690000D03*
X8890000Y57150000D03*
X8890000Y54610000D03*
X8890000Y52070000D03*
X8890000Y49530000D03*
X8890000Y46990000D03*
X8890000Y44450000D03*
X8890000Y41910000D03*
X8890000Y39370000D03*
X8890000Y36830000D03*
X8890000Y34290000D03*
X8890000Y31750000D03*
X8890000Y29210000D03*
X8890000Y26670000D03*
X8890000Y24130000D03*
D14*
X64770000Y6350000D03*
X62230000Y6350000D03*
X67310000Y6350000D03*
D21*
X59690000Y13970000D03*
X69850000Y13970000D03*
D14*
X46990000Y6350000D03*
X44450000Y6350000D03*
X49530000Y6350000D03*
D21*
X41910000Y13970000D03*
X52070000Y13970000D03*
D14*
X29210000Y6350000D03*
X26670000Y6350000D03*
X31750000Y6350000D03*
D21*
X24130000Y13970000D03*
X34290000Y13970000D03*
D14*
X11430000Y6350000D03*
X8890000Y6350000D03*
X13970000Y6350000D03*
D21*
X6350000Y13970000D03*
X16510000Y13970000D03*
D22*
X3810000Y3810000D03*
X72390000Y3810000D03*
X3810000Y85090000D03*
X72390000Y85090000D03*
D23*
X31750000Y76835000D03*
X62865000Y49530000D03*
X61595000Y53340000D03*
X61595000Y55880000D03*
X61595000Y57150000D03*
X12700000Y49530000D03*
X43815000Y52705000D03*
X61595000Y38862000D03*
X61595000Y46990000D03*
X62865000Y29210000D03*
X57785000Y53975000D03*
D11*
X11430000Y69850000D02*
X8890000Y69850000D01*
X11430000Y67945000D02*
X12065000Y67310000D01*
X13970000Y67310000D02*
X12065000Y67310000D01*
X11430000Y67945000D02*
X11430000Y69850000D01*
X16510000Y67310000D02*
X13970000Y67310000D01*
D24*
X11430000Y78105000D02*
X9525000Y76200000D01*
X6985000Y46990000D02*
X6350000Y47625000D01*
X6350000Y74930000D02*
X7620000Y76200000D01*
X6350000Y47625000D02*
X6350000Y74930000D01*
D11*
X50165000Y74930000D02*
X49530000Y74295000D01*
X37465000Y74930000D02*
X36830000Y74295000D01*
X24765000Y74930000D02*
X24130000Y74295000D01*
X12065000Y74930000D02*
X11430000Y74295000D01*
D24*
X9525000Y76200000D02*
X7620000Y76200000D01*
X12700000Y85090000D02*
X11430000Y83820000D01*
X11430000Y83820000D02*
X11430000Y81280000D01*
X12700000Y85090000D02*
X13970000Y85090000D01*
X11430000Y81280000D02*
X11430000Y78105000D01*
X67310000Y84455000D02*
X66675000Y85090000D01*
X10795000Y46990000D02*
X11430000Y47625000D01*
X12700000Y54610000D02*
X11430000Y53340000D01*
X15240000Y54610000D02*
X12700000Y54610000D01*
X11430000Y53340000D02*
X11430000Y47625000D01*
X15240000Y54610000D02*
X25400000Y54610000D01*
X8890000Y46990000D02*
X6985000Y46990000D01*
X8890000Y46990000D02*
X10795000Y46990000D01*
D11*
X52070000Y74930000D02*
X50165000Y74930000D01*
X49530000Y74295000D02*
X49530000Y72350000D01*
X39370000Y74930000D02*
X37465000Y74930000D01*
X36830000Y74295000D02*
X36830000Y72350000D01*
X26670000Y74930000D02*
X24765000Y74930000D01*
X24130000Y74295000D02*
X24130000Y72350000D01*
X13970000Y74930000D02*
X12065000Y74930000D01*
X11430000Y74295000D02*
X11430000Y72350000D01*
D24*
X52070000Y85090000D02*
X52070000Y74930000D01*
X39370000Y85090000D02*
X39370000Y74930000D01*
X26670000Y85090000D02*
X26670000Y74930000D01*
X13970000Y85090000D02*
X13970000Y74930000D01*
X29210000Y85090000D02*
X26670000Y85090000D01*
X26670000Y85090000D02*
X13970000Y85090000D01*
X54610000Y85090000D02*
X66675000Y85090000D01*
X67310000Y84455000D02*
X67310000Y82550000D01*
X41910000Y85090000D02*
X52070000Y85090000D01*
X52070000Y85090000D02*
X54610000Y85090000D01*
X54610000Y85090000D02*
X54610000Y82550000D01*
X29210000Y82550000D02*
X29210000Y85090000D01*
X41910000Y85090000D02*
X41910000Y82550000D01*
X29210000Y85090000D02*
X39370000Y85090000D01*
X39370000Y85090000D02*
X41910000Y85090000D01*
D11*
X24130000Y67945000D02*
X24765000Y67310000D01*
X26670000Y67310000D02*
X24765000Y67310000D01*
X24130000Y67945000D02*
X24130000Y69850000D01*
X29210000Y67310000D02*
X26670000Y67310000D01*
X36830000Y67945000D02*
X37465000Y67310000D01*
X39370000Y67310000D02*
X37465000Y67310000D01*
X36830000Y67945000D02*
X36830000Y69850000D01*
X41910000Y67310000D02*
X39370000Y67310000D01*
X49530000Y67945000D02*
X50165000Y67310000D01*
X52070000Y67310000D02*
X50165000Y67310000D01*
X49530000Y67945000D02*
X49530000Y69850000D01*
X54610000Y67310000D02*
X52070000Y67310000D01*
X21590000Y82550000D02*
X19050000Y82550000D01*
X19050000Y66675000D02*
X17780000Y65405000D01*
X19050000Y80010000D02*
X19050000Y66675000D01*
X10795000Y67310000D02*
X8890000Y67310000D01*
X12700000Y65405000D02*
X10795000Y67310000D01*
X17780000Y65405000D02*
X12700000Y65405000D01*
X34290000Y82550000D02*
X31750000Y82550000D01*
X31750000Y80010000D02*
X31750000Y76835000D01*
X46990000Y82550000D02*
X44450000Y82550000D01*
X45720000Y64770000D02*
X44450000Y66040000D01*
X67310000Y64770000D02*
X45720000Y64770000D01*
X44450000Y66040000D02*
X44450000Y80010000D01*
X66675000Y64770000D02*
X67310000Y64770000D01*
X59690000Y82550000D02*
X57150000Y82550000D01*
X57150000Y74295000D02*
X59055000Y72390000D01*
X62865000Y72390000D02*
X65405000Y69850000D01*
X57150000Y80010000D02*
X57150000Y74295000D01*
X59055000Y72390000D02*
X62865000Y72390000D01*
X65405000Y69850000D02*
X67310000Y69850000D01*
X27940000Y54610000D02*
X27940000Y55880000D01*
X20320000Y59690000D02*
X17780000Y59690000D01*
X27940000Y55880000D02*
X27305000Y56515000D01*
X20320000Y59690000D02*
X20320000Y56515000D01*
X20320000Y56515000D02*
X27305000Y56515000D01*
X22860000Y59690000D02*
X25400000Y59690000D01*
X30480000Y55880000D02*
X30480000Y54610000D01*
X29210000Y57150000D02*
X30480000Y55880000D01*
X25400000Y57150000D02*
X29210000Y57150000D01*
X25400000Y59690000D02*
X25400000Y57150000D01*
X27940000Y59690000D02*
X29845000Y59690000D01*
X33020000Y56515000D02*
X33020000Y54610000D01*
X29845000Y59690000D02*
X33020000Y56515000D01*
X33020000Y59690000D02*
X34925000Y59690000D01*
X35560000Y59055000D02*
X35560000Y54610000D01*
X34925000Y59690000D02*
X35560000Y59055000D01*
X38100000Y59690000D02*
X38100000Y54610000D01*
X62865000Y49530000D02*
X67310000Y49530000D01*
X43180000Y59690000D02*
X41275000Y59690000D01*
X40640000Y59055000D02*
X40640000Y54610000D01*
X41275000Y59690000D02*
X40640000Y59055000D01*
D25*
X68580000Y53340000D02*
X65532000Y53340000D01*
D11*
X65532000Y53340000D02*
X61595000Y53340000D01*
D25*
X69850000Y52070000D02*
X68580000Y53340000D01*
D11*
X48260000Y59690000D02*
X46355000Y59690000D01*
X43180000Y56515000D02*
X43180000Y54610000D01*
X46355000Y59690000D02*
X43180000Y56515000D01*
D25*
X69850000Y54610000D02*
X68580000Y55880000D01*
D11*
X61595000Y55880000D02*
X65532000Y55880000D01*
D25*
X65532000Y55880000D02*
X68580000Y55880000D01*
D11*
X53340000Y59690000D02*
X51435000Y59690000D01*
X45720000Y55880000D02*
X45720000Y54610000D01*
X46990000Y57150000D02*
X45720000Y55880000D01*
X48895000Y57150000D02*
X46990000Y57150000D01*
X51435000Y59690000D02*
X48895000Y57150000D01*
D25*
X68580000Y58420000D02*
X69850000Y57150000D01*
D11*
X62865000Y58420000D02*
X65532000Y58420000D01*
D25*
X65532000Y58420000D02*
X68580000Y58420000D01*
D11*
X61595000Y57150000D02*
X62865000Y58420000D01*
X58420000Y59690000D02*
X56515000Y59690000D01*
X51435000Y54610000D02*
X48260000Y54610000D01*
X56515000Y59690000D02*
X51435000Y54610000D01*
D25*
X68580000Y63500000D02*
X69850000Y64770000D01*
D11*
X59690000Y63500000D02*
X65532000Y63500000D01*
D25*
X65532000Y63500000D02*
X68580000Y63500000D01*
D11*
X58420000Y62230000D02*
X59690000Y63500000D01*
D24*
X14605000Y37465000D02*
X12700000Y39370000D01*
X36195000Y37465000D02*
X36830000Y37465000D01*
X36830000Y37465000D02*
X40005000Y34290000D01*
X40005000Y34290000D02*
X40640000Y34290000D01*
X36195000Y52705000D02*
X36830000Y52705000D01*
X36830000Y52705000D02*
X40005000Y49530000D01*
X40005000Y49530000D02*
X40640000Y49530000D01*
D11*
X28956000Y34290000D02*
X28956000Y37465000D01*
X28956000Y37465000D02*
X29210000Y37465000D01*
X40640000Y34290000D02*
X39370000Y34290000D01*
D24*
X36195000Y37465000D02*
X29210000Y37465000D01*
X29210000Y37465000D02*
X14605000Y37465000D01*
X29210000Y52705000D02*
X36195000Y52705000D01*
D11*
X39370000Y49530000D02*
X40640000Y49530000D01*
D24*
X13335000Y52705000D02*
X12700000Y52070000D01*
X12700000Y52070000D02*
X12700000Y49530000D01*
X13335000Y52705000D02*
X29210000Y52705000D01*
X12700000Y39370000D02*
X12700000Y49530000D01*
D11*
X29210000Y49530000D02*
X29210000Y52705000D01*
D24*
X59055000Y55880000D02*
X61595000Y59690000D01*
X67310000Y59690000D02*
X62230000Y59690000D01*
X61595000Y59690000D02*
X62230000Y59690000D01*
X43815000Y52705000D02*
X50165000Y52705000D01*
X50165000Y52705000D02*
X51181000Y52705000D01*
X54356000Y55880000D02*
X51181000Y52705000D01*
X54610000Y55880000D02*
X54356000Y55880000D01*
X58420000Y55880000D02*
X54610000Y55880000D01*
X59055000Y55880000D02*
X58420000Y55880000D01*
D11*
X49784000Y33020000D02*
X50165000Y33020000D01*
X51435000Y36195000D02*
X50800000Y35560000D01*
X50165000Y33020000D02*
X50800000Y33655000D01*
X51435000Y36195000D02*
X53975000Y38735000D01*
X54102000Y38862000D02*
X53975000Y38735000D01*
X55245000Y38862000D02*
X54102000Y38862000D01*
X50800000Y35560000D02*
X50800000Y33655000D01*
X44450000Y33020000D02*
X46355000Y33020000D01*
X43180000Y31750000D02*
X40640000Y31750000D01*
X43180000Y31750000D02*
X44450000Y33020000D01*
D25*
X46355000Y33020000D02*
X49784000Y33020000D01*
D11*
X54991000Y38862000D02*
X55245000Y38862000D01*
X55245000Y38862000D02*
X61595000Y38862000D01*
X67310000Y46990000D02*
X61595000Y46990000D01*
X50292000Y48260000D02*
X50800000Y48768000D01*
X49784000Y48260000D02*
X50292000Y48260000D01*
X50292000Y48260000D02*
X50165000Y48260000D01*
X62865000Y29210000D02*
X67310000Y29210000D01*
X57785000Y53975000D02*
X56515000Y53975000D01*
X52705000Y52705000D02*
X53975000Y53975000D01*
X50800000Y50800000D02*
X52705000Y52705000D01*
X53975000Y53975000D02*
X56515000Y53975000D01*
X50800000Y50800000D02*
X50800000Y48768000D01*
X44450000Y48260000D02*
X46355000Y48260000D01*
X40640000Y46990000D02*
X43180000Y46990000D01*
X43180000Y46990000D02*
X44450000Y48260000D01*
D25*
X46355000Y48260000D02*
X49784000Y48260000D01*
X49784000Y48260000D02*
X50165000Y48260000D01*
D11*
X34290000Y45720000D02*
X34925000Y45720000D01*
X34925000Y45720000D02*
X35560000Y45720000D01*
D25*
X35560000Y45720000D02*
X42545000Y45720000D01*
D11*
X42545000Y45720000D02*
X43180000Y45720000D01*
X43180000Y45720000D02*
X44450000Y46990000D01*
X44450000Y46990000D02*
X48260000Y46990000D01*
X34290000Y49530000D02*
X34290000Y45720000D01*
X31750000Y44450000D02*
X31750000Y41910000D01*
X33020000Y45720000D02*
X31750000Y44450000D01*
X34290000Y45720000D02*
X33020000Y45720000D01*
X21590000Y39370000D02*
X31750000Y39370000D01*
X31750000Y39370000D02*
X31750000Y41910000D01*
X31750000Y50800000D02*
X32385000Y51435000D01*
X29210000Y46990000D02*
X30480000Y45720000D01*
X31750000Y49530000D02*
X31750000Y50800000D01*
X35560000Y51435000D02*
X38100000Y48895000D01*
D25*
X38100000Y48895000D02*
X38735000Y48260000D01*
D11*
X32385000Y51435000D02*
X35560000Y51435000D01*
X31750000Y49530000D02*
X31750000Y50165000D01*
X44450000Y49530000D02*
X48260000Y49530000D01*
D25*
X38735000Y48260000D02*
X42545000Y48260000D01*
D11*
X42545000Y48260000D02*
X43180000Y48260000D01*
X43180000Y48260000D02*
X44450000Y49530000D01*
X21590000Y49530000D02*
X24130000Y46990000D01*
X24130000Y46990000D02*
X29210000Y46990000D01*
X29210000Y41910000D02*
X29210000Y44450000D01*
X29210000Y44450000D02*
X30480000Y45720000D01*
X31750000Y46990000D02*
X31750000Y49530000D01*
X30480000Y45720000D02*
X31750000Y46990000D01*
X53340000Y49530000D02*
X53340000Y51435000D01*
X53975000Y52070000D02*
X55880000Y52070000D01*
X53340000Y51435000D02*
X53975000Y52070000D01*
X50800000Y44450000D02*
X52070000Y44450000D01*
X53340000Y45720000D02*
X53340000Y49530000D01*
X50800000Y44450000D02*
X48260000Y44450000D01*
X52070000Y44450000D02*
X53340000Y45720000D01*
X48260000Y41910000D02*
X55880000Y41910000D01*
X31750000Y24765000D02*
X31115000Y24130000D01*
X34290000Y30480000D02*
X35560000Y30480000D01*
D25*
X35560000Y30480000D02*
X42545000Y30480000D01*
D11*
X42545000Y30480000D02*
X43180000Y30480000D01*
X43180000Y30480000D02*
X44450000Y31750000D01*
X44450000Y31750000D02*
X48260000Y31750000D01*
X34290000Y34290000D02*
X34290000Y30480000D01*
X31750000Y29210000D02*
X31750000Y26670000D01*
X33020000Y30480000D02*
X31750000Y29210000D01*
X34290000Y30480000D02*
X33020000Y30480000D01*
X21590000Y24130000D02*
X31115000Y24130000D01*
X31750000Y24765000D02*
X31750000Y26670000D01*
X31750000Y35560000D02*
X32385000Y36195000D01*
X32385000Y36195000D02*
X35560000Y36195000D01*
X29210000Y31750000D02*
X30480000Y30480000D01*
X49530000Y34290000D02*
X49530000Y34290000D01*
X31750000Y34290000D02*
X31750000Y34925000D01*
X31750000Y34925000D02*
X31750000Y35560000D01*
X44450000Y34290000D02*
X48260000Y34290000D01*
X43180000Y33020000D02*
X44450000Y34290000D01*
D25*
X38735000Y33020000D02*
X42545000Y33020000D01*
D11*
X42545000Y33020000D02*
X43180000Y33020000D01*
X35560000Y36195000D02*
X38735000Y33020000D01*
X21590000Y34290000D02*
X24130000Y31750000D01*
X24130000Y31750000D02*
X29210000Y31750000D01*
X28956000Y26670000D02*
X28956000Y28956000D01*
X28956000Y28956000D02*
X30480000Y30480000D01*
X31750000Y31750000D02*
X31750000Y34290000D01*
X30480000Y30480000D02*
X31750000Y31750000D01*
X53975000Y36830000D02*
X52705000Y35560000D01*
X55880000Y36830000D02*
X53975000Y36830000D01*
X51435000Y29210000D02*
X48260000Y29210000D01*
X52705000Y30480000D02*
X51435000Y29210000D01*
X52705000Y35560000D02*
X52705000Y30480000D01*
X48369979Y29319979D02*
X48260000Y29210000D01*
X48260000Y26670000D02*
X55880000Y26670000D01*
X5715000Y19050000D02*
X5715000Y36195000D01*
X7620000Y17145000D02*
X5715000Y19050000D01*
X6350000Y36830000D02*
X5715000Y36195000D01*
X6350000Y36830000D02*
X8890000Y36830000D01*
X10160000Y17145000D02*
X11430000Y15875000D01*
X10160000Y17145000D02*
X7620000Y17145000D01*
X11430000Y6350000D02*
X11430000Y15875000D01*
X7620000Y18415000D02*
X6350000Y19685000D01*
X6350000Y19685000D02*
X6350000Y33655000D01*
X6985000Y34290000D02*
X6350000Y33655000D01*
X6985000Y34290000D02*
X8890000Y34290000D01*
X29210000Y6350000D02*
X29210000Y17145000D01*
X27940000Y18415000D02*
X7620000Y18415000D01*
X27940000Y18415000D02*
X29210000Y17145000D01*
X63500000Y20955000D02*
X64770000Y19685000D01*
X11430000Y26670000D02*
X12700000Y25400000D01*
X12700000Y22225000D02*
X13970000Y20955000D01*
X12700000Y22225000D02*
X12700000Y25400000D01*
X63500000Y20955000D02*
X13970000Y20955000D01*
X64770000Y6350000D02*
X64770000Y19685000D01*
X11430000Y26670000D02*
X8890000Y26670000D01*
X10795000Y24130000D02*
X11430000Y23495000D01*
X11430000Y20955000D02*
X12700000Y19685000D01*
X11430000Y20955000D02*
X11430000Y23495000D01*
X46990000Y6350000D02*
X46990000Y18415000D01*
X45720000Y19685000D02*
X12700000Y19685000D01*
X45720000Y19685000D02*
X46990000Y18415000D01*
X10795000Y24130000D02*
X8890000Y24130000D01*
X71755000Y67310000D02*
X72390000Y66675000D01*
X72390000Y22860000D02*
X71120000Y21590000D01*
X72390000Y27940000D02*
X72390000Y66675000D01*
X43180000Y29210000D02*
X40640000Y29210000D01*
X43180000Y29210000D02*
X44450000Y27940000D01*
X71120000Y21590000D02*
X45720000Y21590000D01*
X45720000Y21590000D02*
X44450000Y22860000D01*
X44450000Y22860000D02*
X44450000Y27940000D01*
X72390000Y27940000D02*
X72390000Y22860000D01*
X71755000Y67310000D02*
X69850000Y67310000D01*
X45720000Y39878000D02*
X45212000Y39878000D01*
X45212000Y39878000D02*
X44450000Y40640000D01*
X44450000Y43180000D02*
X44450000Y40640000D01*
X43180000Y44450000D02*
X44450000Y43180000D01*
X40640000Y44450000D02*
X43180000Y44450000D01*
X60325000Y39878000D02*
X65405000Y44450000D01*
X45720000Y39878000D02*
X60325000Y39878000D01*
X65405000Y44450000D02*
X67310000Y44450000D01*
X21590000Y80010000D02*
X21590000Y74930000D01*
X34290000Y80010000D02*
X34290000Y74930000D01*
X46990000Y80010000D02*
X46990000Y74930000D01*
X59690000Y80010000D02*
X59690000Y74930000D01*
M02*
