M48
;DRILL file {KiCad 4.0.7} date 05/12/18 22:47:31
;FORMAT={3:3/ absolute / metric / suppress leading zeros}
FMAT,2
METRIC,TZ
T1C0.400
T2C0.800
T3C1.000
T4C2.200
T5C3.200
%
G90
G05
M71
T1
X12700Y49530
X31750Y76835
X43815Y52705
X57785Y53975
X61595Y57150
X61595Y55880
X61595Y53340
X61595Y46990
X61595Y38862
X62865Y49530
X62865Y29210
T2
X8890Y72390
X8890Y69850
X8890Y67310
X8890Y64770
X8890Y62230
X8890Y59690
X8890Y57150
X8890Y54610
X8890Y52070
X8890Y49530
X8890Y46990
X8890Y44450
X8890Y41910
X8890Y39370
X8890Y36830
X8890Y34290
X8890Y31750
X8890Y29210
X8890Y26670
X8890Y24130
X11430Y72350
X11430Y69850
X13970Y74930
X13970Y67310
X16510Y74930
X16510Y67310
X21590Y82550
X21590Y80010
X21590Y74930
X21590Y67310
X24130Y72350
X24130Y69850
X25400Y54610
X26670Y74930
X26670Y67310
X27940Y54610
X28956Y34290
X28956Y26670
X29210Y82550
X29210Y80010
X29210Y74930
X29210Y67310
X29210Y49530
X29210Y41910
X30480Y54610
X31750Y49530
X31750Y41910
X31750Y34290
X31750Y26670
X33020Y54610
X34290Y82550
X34290Y80010
X34290Y74930
X34290Y67310
X34290Y49530
X34290Y41910
X34290Y34290
X34290Y26670
X35560Y54610
X36830Y72350
X36830Y69850
X36830Y46990
X36830Y44490
X36830Y31750
X36830Y29250
X38100Y54610
X39370Y74930
X39370Y67310
X40640Y54610
X40640Y49530
X40640Y46990
X40640Y44450
X40640Y41910
X40640Y34290
X40640Y31750
X40640Y29210
X40640Y26670
X41910Y82550
X41910Y80010
X41910Y74930
X41910Y67310
X43180Y54610
X45720Y54610
X46990Y82550
X46990Y80010
X46990Y74930
X46990Y67310
X48260Y54610
X48260Y49530
X48260Y46990
X48260Y44450
X48260Y41910
X48260Y34290
X48260Y31750
X48260Y29210
X48260Y26670
X49530Y72350
X49530Y69850
X52070Y74930
X52070Y67310
X54610Y82550
X54610Y80010
X54610Y74930
X54610Y67310
X59690Y82550
X59690Y80010
X59690Y74930
X59690Y67310
X67310Y82550
X67310Y80010
X67310Y72390
X67310Y69850
X67310Y67310
X67310Y64770
X67310Y62230
X67310Y59690
X67310Y57150
X67310Y54610
X67310Y52070
X67310Y49530
X67310Y46990
X67310Y44450
X67310Y41910
X67310Y39370
X67310Y36830
X67310Y34290
X67310Y31750
X67310Y29210
X67310Y26670
X67310Y24130
X69850Y72390
X69850Y69850
X69850Y67310
X69850Y64770
X69850Y62230
X69850Y59690
X69850Y57150
X69850Y54610
X69850Y52070
X69850Y49530
X69850Y46990
X69850Y44450
X69850Y41910
X69850Y39370
X69850Y36830
X69850Y34290
X69850Y31750
X69850Y29210
X69850Y26670
X69850Y24130
T3
X8890Y6350
X11430Y6350
X13970Y6350
X17780Y62230
X17780Y59690
X19050Y82550
X19050Y80010
X21590Y49530
X21590Y41910
X21590Y39370
X21590Y34290
X21590Y26670
X21590Y24130
X22860Y62230
X22860Y59690
X26670Y6350
X27940Y62230
X27940Y59690
X29210Y6350
X31750Y82550
X31750Y80010
X31750Y6350
X33020Y62230
X33020Y59690
X38100Y62230
X38100Y59690
X43180Y62230
X43180Y59690
X44450Y82550
X44450Y80010
X44450Y6350
X46990Y6350
X48260Y62230
X48260Y59690
X49530Y6350
X53340Y62230
X53340Y59690
X55880Y52070
X55880Y49530
X55880Y41910
X55880Y36830
X55880Y34290
X55880Y26670
X57150Y82550
X57150Y80010
X58420Y62230
X58420Y59690
X62230Y6350
X64770Y6350
X67310Y6350
T4
X6350Y13970
X16510Y13970
X24130Y13970
X34290Y13970
X41910Y13970
X52070Y13970
X59690Y13970
X69850Y13970
T5
X3810Y85090
X3810Y3810
X72390Y85090
X72390Y3810
T0
M30
